#!OML:ASF E:\CV Data\Top Level 1\Subject 1\Session 1\player.ASF
:FULLY-SPECIFIED
:DEGREES
990
root 6.02899 17.012 -8.03696 54.293 -81.8023 -65.5476
lowerback 19.3126 -0.15155 6.54025
upperback 7.26122 0.610635 3.30214
thorax -2.89532 0.119367 -0.311747
lowerneck -19.2226 14.3064 -4.88105
upperneck 14.9148 20.2379 2.70892
head 6.86727 9.6796 3.74714
rclavicle 3.77691e-015 -3.10104e-014
rhumerus 133.857 238.121 140.066
rradius 14.4446
rwrist 11.4308
rhand -32.855 14.345
rfingers 7.12502
rthumb -6.07422 -15.5479
lclavicle 3.77691e-015 -3.10104e-014
lhumerus 11.0589 -23.4156 18.4085
lradius 20.6527
lwrist -20.8313
lhand -5.58091 11.0869
lfingers 7.12502
lthumb 20.2352 40.0529
rfemur -2.2423 0.441962 27.324
rtibia 37.6464
rfoot -21.118 -6.37171
rtoes -2.46914
lfemur -66.4048 16.9514 -8.43106
ltibia 24.5489
lfoot -8.35207 12.3086
ltoes -18.1842
991
root 6.01475 17.0661 -7.98123 50.1741 -81.4091 -60.7502
lowerback 19.4039 -0.197675 6.42338
upperback 7.24911 0.542994 3.3098
thorax -2.96198 0.0844347 -0.223437
lowerneck -19.2873 14.2163 -4.96828
upperneck 14.4611 20.1488 2.55036
head 6.74265 9.63609 3.68014
rclavicle 5.66536e-015 -1.59028e-014
rhumerus 131.213 238.034 143.568
rradius 14.9866
rwrist 9.74574
rhand -32.8688 13.9493
rfingers 7.12502
rthumb -6.08754 -15.9433
lclavicle 5.66536e-015 -1.59028e-014
lhumerus 9.76194 -23.8216 17.2115
lradius 20.6853
lwrist -20.8547
lhand -5.49577 11.1389
lfingers 7.12502
lthumb 20.317 40.0962
rfemur -2.49107 0.135058 27.1123
rtibia 36.9369
rfoot -20.6515 -6.83841
rtoes -2.53272
lfemur -66.6836 17.0251 -8.78121
ltibia 24.7574
lfoot -8.31307 12.1113
ltoes -18.3466
992
root 6.00056 17.1196 -7.92354 46.6305 -80.9555 -56.5251
lowerback 19.4859 -0.238126 6.31529
upperback 7.23532 0.48399 3.33635
thorax -3.02488 0.0536731 -0.121543
lowerneck -19.3323 14.1346 -5.04777
upperneck 14.0113 20.0706 2.37445
head 6.6186 9.59664 3.60723
rclavicle -1.44119e-014 4.37326e-015
rhumerus 128.882 237.75 146.763
rradius 15.5773
rwrist 7.91395
rhand -32.8577 13.5453
rfingers 7.12502
rthumb -6.07683 -16.3475
lclavicle -1.44119e-014 4.37326e-015
lhumerus 8.4451 -24.2491 16.1252
lradius 20.7343
lwrist -20.6631
lhand -5.42879 11.2702
lfingers 7.12502
lthumb 20.3814 40.2207
rfemur -2.76341 -0.189484 26.9286
rtibia 36.2653
rfoot -20.1677 -7.31588
rtoes -2.60575
lfemur -66.9055 17.0801 -9.04249
ltibia 24.9614
lfoot -8.28993 11.929
ltoes -18.5107
993
root 5.98639 17.1727 -7.86421 43.6217 -80.4605 -52.8354
lowerback 19.5635 -0.2753 6.21412
upperback 7.21823 0.43061 3.37216
thorax -3.08843 0.0256864 -0.0146411
lowerneck -19.3639 14.062 -5.11717
upperneck 13.5762 20.0025 2.19244
head 6.49861 9.56154 3.53247
rclavicle -1.18277e-014 -1.86858e-014
rhumerus 126.817 237.337 149.699
rradius 16.1922
rwrist 6.03304
rhand -32.8353 13.1219
rfingers 7.12502
rthumb -6.05524 -16.7716
lclavicle -1.18277e-014 -1.86858e-014
lhumerus 7.11004 -24.7344 15.117
lradius 20.8026
lwrist -20.2667
lhand -5.37206 11.4714
lfingers 7.12502
lthumb 20.4359 40.416
rfemur -3.05502 -0.501501 26.7636
rtibia 35.6305
rfoot -19.6617 -7.78698
rtoes -2.71741
lfemur -67.0703 17.1228 -9.22648
ltibia 25.1652
lfoot -8.28277 11.7769
ltoes -18.7018
994
root 5.97237 17.2254 -7.80316 41.126 -79.9299 -49.6595
lowerback 19.64 -0.311726 6.12948
upperback 7.19582 0.381729 3.41409
thorax -3.15631 -7.01961e-006 0.0887381
lowerneck -19.3863 13.9984 -5.16746
upperneck 13.1637 19.942 2.00698
head 6.38661 9.52995 3.45623
rclavicle -1.46107e-014 -8.34896e-015
rhumerus 125.003 236.828 152.395
rradius 16.8127
rwrist 4.14148
rhand -32.8131 12.6598
rfingers 7.12502
rthumb -6.03377 -17.2343
lclavicle -1.46107e-014 -8.34896e-015
lhumerus 5.76063 -25.2428 14.1882
lradius 20.8745
lwrist -19.7765
lhand -5.29557 11.7084
lfingers 7.12502
lthumb 20.5094 40.6451
rfemur -3.36936 -0.774613 26.619
rtibia 35.0369
rfoot -19.1298 -8.23689
rtoes -2.93496
lfemur -67.179 17.1519 -9.32398
ltibia 25.3618
lfoot -8.29334 11.6733
ltoes -18.8865
995
root 5.958 17.2786 -7.73991 38.9704 -79.3967 -46.8363
lowerback 19.7093 -0.343435 6.03067
upperback 7.17752 0.335259 3.45799
thorax -3.21602 -0.0244432 0.201803
lowerneck -19.4034 13.938 -5.22039
upperneck 12.7717 19.8863 1.82269
head 6.27994 9.50005 3.38223
rclavicle 1.98785e-015 -3.65764e-014
rhumerus 123.421 236.26 154.891
rradius 17.425
rwrist 2.27463
rhand -32.7989 12.165
rfingers 7.12502
rthumb -6.02009 -17.7295
lclavicle 1.98785e-015 -3.65764e-014
lhumerus 4.39219 -25.7724 13.3419
lradius 20.9442
lwrist -19.2883
lhand -5.19633 11.9496
lfingers 7.12502
lthumb 20.6048 40.876
rfemur -3.68114 -1.00147 26.4479
rtibia 34.4784
rfoot -18.5792 -8.62704
rtoes -3.26907
lfemur -67.2246 17.1887 -9.38988
ltibia 25.5589
lfoot -8.34207 11.6048
ltoes -19.0202
996
root 5.94365 17.3314 -7.67515 37.092 -78.8448 -44.2888
lowerback 19.7667 -0.376069 5.91844
upperback 7.15762 0.284551 3.5075
thorax -3.27143 -0.0508984 0.329437
lowerneck -19.42 13.8805 -5.26206
upperneck 12.4009 19.8325 1.63416
head 6.18166 9.47037 3.3075
rclavicle 9.64106e-015 2.8625e-014
rhumerus 122.055 235.653 157.205
rradius 18.0197
rwrist 0.444019
rhand -32.7971 11.6524
rfingers 7.12502
rthumb -6.01831 -18.2421
lclavicle 9.64106e-015 2.8625e-014
lhumerus 3.00587 -26.3163 12.5694
lradius 21.0032
lwrist -18.8919
lhand -5.06621 12.1577
lfingers 7.12502
lthumb 20.7298 41.0705
rfemur -4.00913 -1.18221 26.2635
rtibia 33.9544
rfoot -18.0031 -8.9689
rtoes -3.76656
lfemur -67.2548 17.2555 -9.48038
ltibia 25.7546
lfoot -8.40897 11.53
ltoes -19.148
